<?xml version="1.0" encoding="UTF-8"?>
<svg id="_レイヤー_1" data-name="レイヤー_1" xmlns="http://www.w3.org/2000/svg" version="1.1" viewBox="0 0 283.46 69.67">
  <!-- Generator: Adobe Illustrator 30.1.0, SVG Export Plug-In . SVG Version: 2.1.1 Build 136)  -->
  <defs>
    <style>
      .st0 {
        fill: #231815;
      }

      .st1 {
        fill: #004ea2;
      }
    </style>
  </defs>
  <path class="st1" d="M48.6,40.96l8.21-9.44-10.45-12.62h-21.12l10.4,12.56-16.81,19.31h21.23l5.93-6.81,5.64,6.81h5.09l-8.12-9.81ZM38.27,46.84h-10.82l10.73-12.32,4.07,4.91,2.61-3-11.27-13.61h10.93l7.15,8.63-13.39,15.39Z"/>
  <g>
    <path class="st0" d="M65.14,45.22v-21.08c0-.44.15-.82.46-1.14.3-.32.68-.47,1.12-.47h13.97c2.59,0,4.7.69,6.36,2.08,1.65,1.39,2.48,3.26,2.48,5.62,0,3.29-2.13,5.35-6.38,6.18.67.26,1.29.69,1.87,1.29.58.6,1.24,1.47,1.99,2.63l3.08,4.89c.19.33.29.61.29.85,0,.1-.02.2-.05.29-.11.3-.39.46-.83.46h-4.06c-.44,0-.91-.16-1.42-.47-.51-.31-.9-.69-1.17-1.13l-2.88-4.5c-1.17-1.85-2.61-2.78-4.3-2.78h-4.13v7.28c0,.44-.16.82-.47,1.13-.31.31-.69.47-1.13.47h-3.18c-.44,0-.82-.16-1.13-.47-.32-.31-.47-.69-.47-1.13ZM71.52,33.14h7.21c1.15,0,2.17-.23,3.07-.69s1.34-1.2,1.34-2.22-.44-1.76-1.33-2.22c-.89-.46-1.91-.69-3.07-.69h-7.21v5.83Z"/>
    <path class="st0" d="M93.93,39v-9.7c0-.31.1-.56.3-.75s.44-.3.74-.3h3.79c.3,0,.55.1.75.3.19.2.29.45.29.75v9.69c0,2.71,1.07,4.06,3.22,4.06,1.41,0,2.93-.81,4.56-2.44v-11.32c0-.3.1-.56.3-.75s.44-.3.74-.3h3.78c.3,0,.56.1.75.3s.3.45.3.75v16.48c0,.31-.1.55-.3.75-.2.19-.45.29-.75.29h-3.78c-.3,0-.55-.1-.75-.3s-.29-.45-.29-.74v-1.09c-1.94,1.64-3.92,2.47-5.93,2.47-2.38,0-4.26-.67-5.64-2.01-1.38-1.34-2.07-3.38-2.07-6.14Z"/>
    <path class="st0" d="M117.28,46.28c-.03-.1-.05-.2-.05-.29,0-.24.09-.46.27-.68l5.89-7.81-5.5-7.77c-.16-.23-.25-.45-.26-.67-.02-.22.04-.41.19-.58.14-.16.34-.25.58-.25h3.67c1.08,0,1.96.5,2.64,1.49l2.81,4.27,2.81-4.27c.67-.99,1.55-1.49,2.64-1.49h3.67c.26,0,.46.08.59.25.14.16.2.36.19.58-.01.22-.1.44-.27.67l-5.5,7.77,5.89,7.81c.18.21.27.44.27.68,0,.1-.02.2-.05.29-.1.35-.35.53-.75.53h-3.61c-1.04,0-1.92-.5-2.64-1.49l-3.25-4.4-3.27,4.4c-.71.99-1.59,1.49-2.62,1.49h-3.61c-.4,0-.64-.18-.75-.53Z"/>
    <path class="st0" d="M142.73,44.71c-1.74-1.62-2.61-4-2.61-7.12s.87-5.52,2.62-7.18c1.75-1.67,4.17-2.5,7.26-2.5s5.54.83,7.28,2.49c1.74,1.66,2.61,4.04,2.61,7.13v.99c0,.31-.1.57-.3.77s-.45.3-.75.3h-12.75c.11,1.29.51,2.24,1.19,2.82.68.59,1.73.88,3.14.88,1.59,0,2.7-.38,3.32-1.13.48-.6,1.13-.9,1.95-.91h2.52c.31,0,.56.1.75.32s.3.48.3.8c0,3.19-3.09,4.79-9.26,4.78-3.12,0-5.54-.81-7.28-2.43ZM146.06,35.75h7.87c-.11-2.66-1.42-4-3.92-4s-3.82,1.33-3.95,4Z"/>
    <path class="st0" d="M164.45,45.77v-22.2c0-.3.1-.56.3-.75.2-.2.44-.3.74-.3h3.79c.3,0,.55.1.75.3.19.2.29.45.29.75v22.2c0,.31-.1.55-.3.75-.2.19-.44.29-.74.29h-3.79c-.31,0-.55-.1-.75-.29-.19-.19-.29-.44-.29-.75Z"/>
    <path class="st0" d="M174.06,25.72v-1.59c0-.46.15-.85.46-1.15.31-.3.69-.46,1.15-.46h21.49c.46,0,.85.15,1.15.46.31.31.46.69.46,1.15v1.59c0,.46-.15.84-.46,1.14-.31.3-.69.45-1.15.45h-7.55v17.93c0,.44-.15.81-.47,1.11-.31.3-.69.45-1.13.45h-3.2c-.44,0-.82-.15-1.13-.45-.31-.3-.47-.67-.47-1.11v-17.93h-7.55c-.46,0-.85-.15-1.15-.45-.3-.3-.46-.68-.46-1.14Z"/>
    <path class="st0" d="M200.2,44.71c-1.74-1.62-2.61-4-2.61-7.12s.87-5.52,2.62-7.18c1.75-1.67,4.17-2.5,7.26-2.5s5.54.83,7.28,2.49,2.61,4.04,2.61,7.13v.99c0,.31-.1.57-.3.77s-.45.3-.75.3h-12.75c.11,1.29.51,2.24,1.19,2.82.68.59,1.73.88,3.14.88,1.59,0,2.7-.38,3.32-1.13.48-.6,1.13-.9,1.95-.91h2.52c.31,0,.56.1.75.32s.3.48.3.8c0,3.19-3.09,4.79-9.26,4.78-3.12,0-5.54-.81-7.28-2.43ZM203.53,35.75h7.87c-.11-2.66-1.42-4-3.92-4s-3.82,1.33-3.95,4Z"/>
    <path class="st0" d="M220.94,37.54c0-3.17.87-5.57,2.62-7.19,1.75-1.62,4.23-2.44,7.43-2.44,3.03,0,5.38.5,7.06,1.49s2.52,2.46,2.52,4.4c0,.31-.1.56-.3.75-.2.19-.45.29-.76.29h-2.56c-.78,0-1.44-.41-1.97-1.24-.68-1.06-1.91-1.59-3.69-1.59-1.64,0-2.8.43-3.48,1.29-.68.86-1.02,2.27-1.02,4.24s.35,3.34,1.05,4.21c.7.87,1.91,1.3,3.61,1.3s3.01-.53,3.69-1.58c.54-.83,1.2-1.25,1.97-1.25h2.56c.31,0,.56.1.76.29.2.19.3.44.3.73,0,1.95-.84,3.42-2.52,4.41s-4.03,1.49-7.05,1.49c-3.31,0-5.84-.81-7.6-2.44-1.76-1.63-2.64-4.02-2.64-7.17Z"/>
    <path class="st0" d="M245.14,45.77v-22.2c0-.3.1-.56.3-.75.2-.2.44-.3.74-.3h3.79c.3,0,.55.1.75.3.19.2.29.45.29.75v6.79c1.94-1.64,3.92-2.46,5.93-2.46,2.38,0,4.26.67,5.64,2.01,1.38,1.34,2.07,3.38,2.07,6.14v9.72c0,.31-.1.55-.3.75-.2.19-.45.29-.75.29h-3.78c-.3,0-.55-.1-.75-.3-.19-.2-.29-.44-.29-.74v-9.72c0-2.71-1.08-4.06-3.23-4.05-1.41,0-2.92.81-4.54,2.42v11.35c0,.31-.1.55-.3.75-.2.19-.44.29-.74.29h-3.79c-.31,0-.55-.1-.75-.29-.19-.19-.29-.44-.29-.75Z"/>
  </g>
</svg>